<svg width="695" height="172" viewBox="0 0 695 172" fill="none" xmlns="http://www.w3.org/2000/svg">
<path d="M97.6848 53.9722C99.1098 53.1172 100.89 53.1172 102.315 53.9722L192.597 108.141C195.51 109.889 195.51 114.111 192.597 115.859L102.315 170.028C100.89 170.883 99.1098 170.883 97.6848 170.028L7.40302 115.859C4.48999 114.111 4.49 109.889 7.40302 108.141L97.6848 53.9722Z" fill="#06B6D4" stroke="#0F172A"/>
<path d="M97.4275 68.5435C99.0109 67.5934 100.989 67.5934 102.572 68.5435L167.854 107.713C171.091 109.655 171.091 114.345 167.854 116.287L102.572 155.457C100.989 156.407 99.0109 156.407 97.4275 155.457L32.1458 116.287C28.9091 114.345 28.9091 109.655 32.1458 107.713L97.4275 68.5435Z" fill="#0F172A"/>
<path d="M97.6848 27.9722C99.1098 27.1172 100.89 27.1172 102.315 27.9722L192.597 82.1413C195.51 83.8891 195.51 88.1109 192.597 89.8587L102.315 144.028C100.89 144.883 99.1098 144.883 97.6848 144.028L7.40302 89.8587C4.48999 88.1109 4.49 83.8891 7.40302 82.1413L97.6848 27.9722Z" fill="#06B6D4" stroke="#0F172A"/>
<path d="M97.4275 42.5435C99.0109 41.5934 100.989 41.5934 102.572 42.5435L167.854 81.7125C171.091 83.6546 171.091 88.3454 167.854 90.2875L102.572 129.457C100.989 130.407 99.0109 130.407 97.4275 129.457L32.1458 90.2875C28.9091 88.3454 28.9091 83.6546 32.1458 81.7125L97.4275 42.5435Z" fill="#0F172A"/>
<path d="M97.6848 1.97223C99.1098 1.11719 100.89 1.11719 102.315 1.97223L192.597 56.1413C195.51 57.8891 195.51 62.1109 192.597 63.8587L102.315 118.028C100.89 118.883 99.1098 118.883 97.6848 118.028L7.40302 63.8587C4.48999 62.1109 4.49 57.8891 7.40302 56.1413L97.6848 1.97223Z" fill="#06B6D4" stroke="#0F172A"/>
<path d="M97.4275 16.5435C99.0109 15.5934 100.989 15.5934 102.572 16.5435L167.854 55.7125C171.091 57.6546 171.091 62.3454 167.854 64.2875L102.572 103.457C100.989 104.407 99.0109 104.407 97.4275 103.457L32.1458 64.2875C28.9091 62.3454 28.9091 57.6546 32.1458 55.7125L97.4275 16.5435Z" fill="#0F172A"/>
<path d="M112.942 25.2348C114.209 24.4748 115.791 24.4748 117.058 25.2348L169.283 56.57C171.873 58.1236 171.873 61.8764 169.283 63.43L117.058 94.7652C115.791 95.5252 114.209 95.5252 112.942 94.7652L60.7166 63.43C58.1273 61.8764 58.1273 58.1236 60.7166 56.57L112.942 25.2348Z" fill="#06B6D4"/>
<path d="M122.942 31.2348C124.209 30.4748 125.791 30.4748 127.058 31.2348L169.283 56.57C171.873 58.1236 171.873 61.8764 169.283 63.43L127.058 88.7652C125.791 89.5252 124.209 89.5252 122.942 88.7652L80.7166 63.43C78.1273 61.8764 78.1273 58.1236 80.7166 56.57L122.942 31.2348Z" fill="#0F172A"/>
<path d="M133.942 37.2348C135.209 36.4748 136.791 36.4748 138.058 37.2348L170.283 56.57C172.873 58.1236 172.873 61.8764 170.283 63.43L138.058 82.7652C136.791 83.5252 135.209 83.5252 133.942 82.7652L101.717 63.43C99.1273 61.8764 99.1273 58.1236 101.717 56.57L133.942 37.2348Z" fill="#06B6D4"/>
<path d="M112.942 49.2348C114.209 48.4748 115.791 48.4748 117.058 49.2348L129.283 56.57C131.873 58.1236 131.873 61.8764 129.283 63.43L117.058 70.7652C115.791 71.5252 114.209 71.5252 112.942 70.7652L100.717 63.43C98.1273 61.8764 98.1273 58.1236 100.717 56.57L112.942 49.2348Z" fill="#0F172A"/>
<path d="M134.942 49.2348C136.209 48.4748 137.791 48.4748 139.058 49.2348L151.283 56.57C153.873 58.1236 153.873 61.8764 151.283 63.43L139.058 70.7652C137.791 71.5252 136.209 71.5252 134.942 70.7652L122.717 63.43C120.127 61.8764 120.127 58.1236 122.717 56.57L134.942 49.2348Z" fill="#0F172A"/>
<path d="M214.364 119V66.6364H222.409V119H214.364ZM218.455 57.9091C216.886 57.9091 215.534 57.375 214.398 56.3068C213.284 55.2386 212.727 53.9545 212.727 52.4545C212.727 50.9545 213.284 49.6705 214.398 48.6023C215.534 47.5341 216.886 47 218.455 47C220.023 47 221.364 47.5341 222.477 48.6023C223.614 49.6705 224.182 50.9545 224.182 52.4545C224.182 53.9545 223.614 55.2386 222.477 56.3068C221.364 57.375 220.023 57.9091 218.455 57.9091ZM245.19 87.5V119H237.145V66.6364H244.918V74.8182H245.599C246.827 72.1591 248.69 70.0227 251.19 68.4091C253.69 66.7727 256.918 65.9545 260.872 65.9545C264.418 65.9545 267.52 66.6818 270.179 68.1364C272.838 69.5682 274.906 71.75 276.384 74.6818C277.861 77.5909 278.599 81.2727 278.599 85.7273V119H270.554V86.2727C270.554 82.1591 269.486 78.9545 267.349 76.6591C265.213 74.3409 262.281 73.1818 258.554 73.1818C255.986 73.1818 253.69 73.7386 251.668 74.8523C249.668 75.9659 248.088 77.5909 246.929 79.7273C245.77 81.8636 245.19 84.4545 245.19 87.5ZM316.619 66.6364V73.4545H288.392V66.6364H316.619ZM296.847 119V59.4091C296.847 56.4091 297.551 53.9091 298.96 51.9091C300.369 49.9091 302.199 48.4091 304.449 47.4091C306.699 46.4091 309.074 45.9091 311.574 45.9091C313.551 45.9091 315.165 46.0682 316.415 46.3864C317.665 46.7045 318.597 47 319.21 47.2727L316.892 54.2273C316.483 54.0909 315.915 53.9205 315.188 53.7159C314.483 53.5114 313.551 53.4091 312.392 53.4091C309.733 53.4091 307.813 54.0795 306.631 55.4205C305.472 56.7614 304.892 58.7273 304.892 61.3182V119H296.847ZM327.895 119V66.6364H335.94V119H327.895ZM331.986 57.9091C330.418 57.9091 329.065 57.375 327.929 56.3068C326.815 55.2386 326.259 53.9545 326.259 52.4545C326.259 50.9545 326.815 49.6705 327.929 48.6023C329.065 47.5341 330.418 47 331.986 47C333.554 47 334.895 47.5341 336.009 48.6023C337.145 49.6705 337.713 50.9545 337.713 52.4545C337.713 53.9545 337.145 55.2386 336.009 56.3068C334.895 57.375 333.554 57.9091 331.986 57.9091ZM358.722 87.5V119H350.676V66.6364H358.449V74.8182H359.131C360.358 72.1591 362.222 70.0227 364.722 68.4091C367.222 66.7727 370.449 65.9545 374.403 65.9545C377.949 65.9545 381.051 66.6818 383.71 68.1364C386.369 69.5682 388.438 71.75 389.915 74.6818C391.392 77.5909 392.131 81.2727 392.131 85.7273V119H384.085V86.2727C384.085 82.1591 383.017 78.9545 380.881 76.6591C378.744 74.3409 375.813 73.1818 372.085 73.1818C369.517 73.1818 367.222 73.7386 365.199 74.8523C363.199 75.9659 361.619 77.5909 360.46 79.7273C359.301 81.8636 358.722 84.4545 358.722 87.5ZM406.832 119V66.6364H414.878V119H406.832ZM410.923 57.9091C409.355 57.9091 408.003 57.375 406.866 56.3068C405.753 55.2386 405.196 53.9545 405.196 52.4545C405.196 50.9545 405.753 49.6705 406.866 48.6023C408.003 47.5341 409.355 47 410.923 47C412.491 47 413.832 47.5341 414.946 48.6023C416.082 49.6705 416.651 50.9545 416.651 52.4545C416.651 53.9545 416.082 55.2386 414.946 56.3068C413.832 57.375 412.491 57.9091 410.923 57.9091ZM452.386 66.6364V73.4545H425.25V66.6364H452.386ZM433.159 54.0909H441.205V104C441.205 106.273 441.534 107.977 442.193 109.114C442.875 110.227 443.739 110.977 444.784 111.364C445.852 111.727 446.977 111.909 448.159 111.909C449.045 111.909 449.773 111.864 450.341 111.773C450.909 111.659 451.364 111.568 451.705 111.5L453.341 118.727C452.795 118.932 452.034 119.136 451.057 119.341C450.08 119.568 448.841 119.682 447.341 119.682C445.068 119.682 442.841 119.193 440.659 118.216C438.5 117.239 436.705 115.75 435.273 113.75C433.864 111.75 433.159 109.227 433.159 106.182V54.0909ZM485.881 120.091C480.835 120.091 476.483 118.977 472.824 116.75C469.188 114.5 466.381 111.364 464.403 107.341C462.449 103.295 461.472 98.5909 461.472 93.2273C461.472 87.8636 462.449 83.1364 464.403 79.0455C466.381 74.9318 469.131 71.7273 472.653 69.4318C476.199 67.1136 480.335 65.9545 485.062 65.9545C487.79 65.9545 490.483 66.4091 493.142 67.3182C495.801 68.2273 498.222 69.7045 500.403 71.75C502.585 73.7727 504.324 76.4545 505.619 79.7955C506.915 83.1364 507.562 87.25 507.562 92.1364V95.5455H467.199V88.5909H499.381C499.381 85.6364 498.79 83 497.608 80.6818C496.449 78.3636 494.79 76.5341 492.631 75.1932C490.494 73.8523 487.972 73.1818 485.062 73.1818C481.858 73.1818 479.085 73.9773 476.744 75.5682C474.426 77.1364 472.642 79.1818 471.392 81.7045C470.142 84.2273 469.517 86.9318 469.517 89.8182V94.4545C469.517 98.4091 470.199 101.761 471.562 104.511C472.949 107.239 474.869 109.318 477.324 110.75C479.778 112.159 482.631 112.864 485.881 112.864C487.994 112.864 489.903 112.568 491.608 111.977C493.335 111.364 494.824 110.455 496.074 109.25C497.324 108.023 498.29 106.5 498.972 104.682L506.744 106.864C505.926 109.5 504.551 111.818 502.619 113.818C500.688 115.795 498.301 117.341 495.46 118.455C492.619 119.545 489.426 120.091 485.881 120.091Z" fill="#0F172A"/>
<path d="M523.756 119H514.892L540.528 49.1818H549.256L574.892 119H566.028L545.165 60.2273H544.619L523.756 119ZM527.028 91.7273H562.756V99.2273H527.028V91.7273ZM584.676 138.636V66.6364H592.449V74.9545H593.403C593.994 74.0455 594.813 72.8864 595.858 71.4773C596.926 70.0455 598.449 68.7727 600.426 67.6591C602.426 66.5227 605.131 65.9545 608.54 65.9545C612.949 65.9545 616.835 67.0568 620.199 69.2614C623.563 71.4659 626.188 74.5909 628.074 78.6364C629.96 82.6818 630.903 87.4545 630.903 92.9545C630.903 98.5 629.96 103.307 628.074 107.375C626.188 111.42 623.574 114.557 620.233 116.784C616.892 118.989 613.04 120.091 608.676 120.091C605.313 120.091 602.619 119.534 600.597 118.42C598.574 117.284 597.017 116 595.926 114.568C594.835 113.114 593.994 111.909 593.403 110.955H592.722V138.636H584.676ZM592.585 92.8182C592.585 96.7727 593.165 100.261 594.324 103.284C595.483 106.284 597.176 108.636 599.403 110.341C601.631 112.023 604.358 112.864 607.585 112.864C610.949 112.864 613.756 111.977 616.006 110.205C618.278 108.409 619.983 106 621.119 102.977C622.278 99.9318 622.858 96.5455 622.858 92.8182C622.858 89.1364 622.29 85.8182 621.153 82.8636C620.04 79.8864 618.347 77.5341 616.074 75.8068C613.824 74.0568 610.994 73.1818 607.585 73.1818C604.313 73.1818 601.563 74.0114 599.335 75.6705C597.108 77.3068 595.426 79.6023 594.29 82.5568C593.153 85.4886 592.585 88.9091 592.585 92.8182ZM643.176 138.636V66.6364H650.949V74.9545H651.903C652.494 74.0455 653.313 72.8864 654.358 71.4773C655.426 70.0455 656.949 68.7727 658.926 67.6591C660.926 66.5227 663.631 65.9545 667.04 65.9545C671.449 65.9545 675.335 67.0568 678.699 69.2614C682.063 71.4659 684.688 74.5909 686.574 78.6364C688.46 82.6818 689.403 87.4545 689.403 92.9545C689.403 98.5 688.46 103.307 686.574 107.375C684.688 111.42 682.074 114.557 678.733 116.784C675.392 118.989 671.54 120.091 667.176 120.091C663.813 120.091 661.119 119.534 659.097 118.42C657.074 117.284 655.517 116 654.426 114.568C653.335 113.114 652.494 111.909 651.903 110.955H651.222V138.636H643.176ZM651.085 92.8182C651.085 96.7727 651.665 100.261 652.824 103.284C653.983 106.284 655.676 108.636 657.903 110.341C660.131 112.023 662.858 112.864 666.085 112.864C669.449 112.864 672.256 111.977 674.506 110.205C676.778 108.409 678.483 106 679.619 102.977C680.778 99.9318 681.358 96.5455 681.358 92.8182C681.358 89.1364 680.79 85.8182 679.653 82.8636C678.54 79.8864 676.847 77.5341 674.574 75.8068C672.324 74.0568 669.494 73.1818 666.085 73.1818C662.813 73.1818 660.063 74.0114 657.835 75.6705C655.608 77.3068 653.926 79.6023 652.79 82.5568C651.653 85.4886 651.085 88.9091 651.085 92.8182Z" fill="#06B6D4"/>
</svg>
